<svg width="18" height="18" viewBox="0 0 18 18" fill="none" xmlns="http://www.w3.org/2000/svg">
<path d="M16.9323 15.7835C17.0853 15.9352 17.1714 16.1418 17.1714 16.3572C17.1714 16.5727 17.0853 16.7792 16.9323 16.931C16.7806 17.084 16.5741 17.17 16.3586 17.17C16.1431 17.17 15.9366 17.084 15.7848 16.931L9.08569 10.2237L2.38654 16.931C2.2348 17.084 2.02826 17.17 1.81279 17.17C1.59732 17.17 1.39077 17.084 1.23903 16.931C1.08605 16.7792 1 16.5727 1 16.3572C1 16.1418 1.08605 15.9352 1.23903 15.7835L7.94626 9.08433L1.23903 2.38518C1.03405 2.18019 0.953999 1.88143 1.02903 1.60142C1.10406 1.32141 1.32277 1.10269 1.60278 1.02767C1.88279 0.952638 2.18156 1.03269 2.38654 1.23767L9.08569 7.9449L15.7848 1.23767C16.1017 0.9208 16.6155 0.9208 16.9323 1.23767C17.2492 1.55455 17.2492 2.0683 16.9323 2.38518L10.2251 9.08433L16.9323 15.7835Z" fill="#03662F" stroke="#03662F"/>
</svg>
